<svg xmlns="http://www.w3.org/2000/svg" xmlns:xlink="http://www.w3.org/1999/xlink" width="250" zoomAndPan="magnify" viewBox="0 0 187.5 187.499992" height="250" preserveAspectRatio="xMidYMid meet" version="1.2"><defs><clipPath id="8cceceab02"><path d="M 62 28 L 160 28 L 160 126 L 62 126 Z M 62 28 "/></clipPath><clipPath id="7389989f28"><path d="M 112.585938 -17.800781 L 205.996094 75.613281 L 155.546875 126.0625 L 62.132812 32.648438 Z M 112.585938 -17.800781 "/></clipPath><clipPath id="7ba0f5cc9b"><path d="M 159.214844 28.828125 L 155.390625 125.90625 L 62.132812 32.648438 Z M 159.214844 28.828125 "/></clipPath><clipPath id="fc11b9abbe"><path d="M 27 61 L 125 61 L 125 159 L 27 159 Z M 27 61 "/></clipPath><clipPath id="bb1607961b"><path d="M 74.300781 204.746094 L -18.996094 111.449219 L 30.972656 61.484375 L 124.265625 154.78125 Z M 74.300781 204.746094 "/></clipPath><clipPath id="901f2d4ddd"><path d="M 27.671875 158.117188 L 31.007812 61.519531 L 124.265625 154.78125 Z M 27.671875 158.117188 "/></clipPath></defs><g id="58e990b095"><g clip-rule="nonzero" clip-path="url(#8cceceab02)"><g clip-rule="nonzero" clip-path="url(#7389989f28)"><g clip-rule="nonzero" clip-path="url(#7ba0f5cc9b)"><path style=" stroke:none;fill-rule:nonzero;fill:#3e3e3e;fill-opacity:1;" d="M 112.585938 -17.800781 L 205.800781 75.414062 L 155.347656 125.863281 L 62.132812 32.648438 Z M 112.585938 -17.800781 "/></g></g></g><g clip-rule="nonzero" clip-path="url(#fc11b9abbe)"><g clip-rule="nonzero" clip-path="url(#bb1607961b)"><g clip-rule="nonzero" clip-path="url(#901f2d4ddd)"><path style=" stroke:none;fill-rule:nonzero;fill:#3e3e3e;fill-opacity:1;" d="M 74.300781 204.746094 L -18.996094 111.449219 L 30.972656 61.484375 L 124.265625 154.78125 Z M 74.300781 204.746094 "/></g></g></g></g></svg>